<mxfile host="drawio-plugin" modified="2021-10-06T10:38:31.513Z" agent="5.0 (Windows NT 6.2; Win64; x64) AppleWebKit/537.36 (KHTML, like Gecko) Chrome/84.0.4147.105 Safari/537.36" etag="TkREXQ0ZKXJVasOX0WSx" version="14.7.4" type="embed"><diagram id="C5RBs43oDa-KdzZeNtuy" name="Page-1"><mxGraphModel dx="853" dy="255" grid="1" gridSize="10" guides="1" tooltips="1" connect="1" arrows="1" fold="1" page="1" pageScale="1" pageWidth="827" pageHeight="1169" background="none" math="0" shadow="0"><root><mxCell id="WIyWlLk6GJQsqaUBKTNV-0"/><mxCell id="WIyWlLk6GJQsqaUBKTNV-1" parent="WIyWlLk6GJQsqaUBKTNV-0"/><mxCell id="zkfFHV4jXpPFQw0GAbJ--13" value="Kitchen" style="swimlane;fontStyle=0;align=center;verticalAlign=top;childLayout=stackLayout;horizontal=1;startSize=26;horizontalStack=0;resizeParent=1;resizeLast=0;collapsible=1;marginBottom=0;rounded=0;shadow=0;strokeWidth=1;" parent="WIyWlLk6GJQsqaUBKTNV-1" vertex="1"><mxGeometry x="250" y="360" width="210" height="160" as="geometry"><mxRectangle x="340" y="380" width="170" height="26" as="alternateBounds"/></mxGeometry></mxCell><mxCell id="zkfFHV4jXpPFQw0GAbJ--14" value="+orders_list:list" style="text;align=left;verticalAlign=top;spacingLeft=4;spacingRight=4;overflow=hidden;rotatable=0;points=[[0,0.5],[1,0.5]];portConstraint=eastwest;" parent="zkfFHV4jXpPFQw0GAbJ--13" vertex="1"><mxGeometry y="26" width="210" height="24" as="geometry"/></mxCell><mxCell id="zkfFHV4jXpPFQw0GAbJ--15" value="" style="line;html=1;strokeWidth=1;align=left;verticalAlign=middle;spacingTop=-1;spacingLeft=3;spacingRight=3;rotatable=0;labelPosition=right;points=[];portConstraint=eastwest;" parent="zkfFHV4jXpPFQw0GAbJ--13" vertex="1"><mxGeometry y="50" width="210" height="40" as="geometry"/></mxCell><mxCell id="15" value="+ get_cooked_order(popped_object)" style="text;html=1;align=left;verticalAlign=middle;resizable=0;points=[];autosize=1;strokeColor=none;labelPosition=center;verticalLabelPosition=middle;" parent="zkfFHV4jXpPFQw0GAbJ--13" vertex="1"><mxGeometry y="90" width="210" height="20" as="geometry"/></mxCell><mxCell id="MlBptTiz39GWEh7bX69R-13" value="+ get_orders(list)&lt;br&gt;+ give_cooked_orders(list):list" style="text;html=1;align=left;verticalAlign=middle;resizable=0;points=[];autosize=1;strokeColor=none;fillColor=none;" parent="zkfFHV4jXpPFQw0GAbJ--13" vertex="1"><mxGeometry y="110" width="210" height="30" as="geometry"/></mxCell><mxCell id="MlBptTiz39GWEh7bX69R-7" value="" style="line;strokeWidth=1;fillColor=none;align=left;verticalAlign=middle;spacingTop=-1;spacingLeft=3;spacingRight=3;rotatable=0;labelPosition=right;points=[];portConstraint=eastwest;hachureGap=4;pointerEvents=0;" parent="WIyWlLk6GJQsqaUBKTNV-1" vertex="1"><mxGeometry x="205" y="315" width="65" as="geometry"/></mxCell><mxCell id="MlBptTiz39GWEh7bX69R-54" value="Customer" style="swimlane;fontStyle=0;align=center;verticalAlign=top;childLayout=stackLayout;horizontal=1;startSize=26;horizontalStack=0;resizeParent=1;resizeLast=0;collapsible=1;marginBottom=0;rounded=0;shadow=0;strokeWidth=1;" parent="WIyWlLk6GJQsqaUBKTNV-1" vertex="1"><mxGeometry x="750" y="610" width="260" height="150" as="geometry"><mxRectangle x="130" y="380" width="160" height="26" as="alternateBounds"/></mxGeometry></mxCell><mxCell id="SgwwVuOV3iIbKAaU-41p-32" value="&lt;font&gt;+customer_id:int&lt;br&gt;+customer_type:str&lt;br&gt;&lt;/font&gt;" style="text;html=1;align=left;verticalAlign=middle;resizable=0;points=[];autosize=1;strokeColor=none;fillColor=none;fontColor=#f0f0f0;" parent="MlBptTiz39GWEh7bX69R-54" vertex="1"><mxGeometry y="26" width="260" height="30" as="geometry"/></mxCell><mxCell id="MlBptTiz39GWEh7bX69R-57" value="" style="line;html=1;strokeWidth=1;align=left;verticalAlign=middle;spacingTop=-1;spacingLeft=3;spacingRight=3;rotatable=0;labelPosition=right;points=[];portConstraint=eastwest;" parent="MlBptTiz39GWEh7bX69R-54" vertex="1"><mxGeometry y="56" width="260" height="24" as="geometry"/></mxCell><mxCell id="MlBptTiz39GWEh7bX69R-58" value="+make_order():menu_items:list&#10; " style="text;align=left;verticalAlign=top;spacingLeft=4;spacingRight=4;overflow=hidden;rotatable=0;points=[[0,0.5],[1,0.5]];portConstraint=eastwest;fontStyle=0" parent="MlBptTiz39GWEh7bX69R-54" vertex="1"><mxGeometry y="80" width="260" height="16" as="geometry"/></mxCell><mxCell id="22" value="+receive_dishes(list)" style="text;html=1;align=left;verticalAlign=middle;resizable=0;points=[];autosize=1;strokeColor=none;" parent="MlBptTiz39GWEh7bX69R-54" vertex="1"><mxGeometry y="96" width="260" height="20" as="geometry"/></mxCell><mxCell id="23" value="+give_money():float" style="text;html=1;align=left;verticalAlign=middle;resizable=0;points=[];autosize=1;strokeColor=none;" parent="MlBptTiz39GWEh7bX69R-54" vertex="1"><mxGeometry y="116" width="260" height="20" as="geometry"/></mxCell><mxCell id="MlBptTiz39GWEh7bX69R-167" value="Menu" style="swimlane;fontStyle=0;align=center;verticalAlign=top;childLayout=stackLayout;horizontal=1;startSize=26;horizontalStack=0;resizeParent=1;resizeLast=0;collapsible=1;marginBottom=0;rounded=0;shadow=0;strokeWidth=1;" parent="WIyWlLk6GJQsqaUBKTNV-1" vertex="1"><mxGeometry x="310" y="569.9970491803278" width="160" height="176.29508196721312" as="geometry"><mxRectangle x="130" y="380" width="160" height="26" as="alternateBounds"/></mxGeometry></mxCell><mxCell id="MlBptTiz39GWEh7bX69R-168" value="+salad:list&#10;" style="text;align=left;verticalAlign=top;spacingLeft=4;spacingRight=4;overflow=hidden;rotatable=0;points=[[0,0.5],[1,0.5]];portConstraint=eastwest;" parent="MlBptTiz39GWEh7bX69R-167" vertex="1"><mxGeometry y="26" width="160" height="23.21311475409836" as="geometry"/></mxCell><mxCell id="MlBptTiz39GWEh7bX69R-169" value="+pasta:list" style="text;align=left;verticalAlign=top;spacingLeft=4;spacingRight=4;overflow=hidden;rotatable=0;points=[[0,0.5],[1,0.5]];portConstraint=eastwest;rounded=0;shadow=0;html=0;" parent="MlBptTiz39GWEh7bX69R-167" vertex="1"><mxGeometry y="49.213114754098356" width="160" height="19.34426229508197" as="geometry"/></mxCell><mxCell id="MlBptTiz39GWEh7bX69R-176" value="+soup:list" style="text;html=1;align=left;verticalAlign=middle;resizable=0;points=[];autosize=1;strokeColor=none;fillColor=none;" parent="MlBptTiz39GWEh7bX69R-167" vertex="1"><mxGeometry y="68.55737704918033" width="160" height="20" as="geometry"/></mxCell><mxCell id="MlBptTiz39GWEh7bX69R-174" value="+dessert:list" style="text;html=1;align=left;verticalAlign=middle;resizable=0;points=[];autosize=1;strokeColor=none;fillColor=none;" parent="MlBptTiz39GWEh7bX69R-167" vertex="1"><mxGeometry y="88.55737704918033" width="160" height="20" as="geometry"/></mxCell><mxCell id="MlBptTiz39GWEh7bX69R-175" value="+bar:list" style="text;html=1;align=left;verticalAlign=middle;resizable=0;points=[];autosize=1;strokeColor=none;fillColor=none;" parent="MlBptTiz39GWEh7bX69R-167" vertex="1"><mxGeometry y="108.55737704918033" width="160" height="20" as="geometry"/></mxCell><mxCell id="MlBptTiz39GWEh7bX69R-179" value="" style="line;strokeWidth=1;fillColor=none;align=left;verticalAlign=middle;spacingTop=-1;spacingLeft=3;spacingRight=3;rotatable=0;labelPosition=right;points=[];portConstraint=eastwest;hachureGap=4;pointerEvents=0;" parent="MlBptTiz39GWEh7bX69R-167" vertex="1"><mxGeometry y="128.55737704918033" width="160" height="7.737704918032787" as="geometry"/></mxCell><mxCell id="MlBptTiz39GWEh7bX69R-180" value="+update():obj" style="text;html=1;align=left;verticalAlign=middle;resizable=0;points=[];autosize=1;strokeColor=none;fillColor=none;" parent="MlBptTiz39GWEh7bX69R-167" vertex="1"><mxGeometry y="136.29508196721312" width="160" height="20" as="geometry"/></mxCell><mxCell id="MlBptTiz39GWEh7bX69R-181" value="+show_prices(str):int" style="text;html=1;align=left;verticalAlign=middle;resizable=0;points=[];autosize=1;strokeColor=none;fillColor=none;" parent="MlBptTiz39GWEh7bX69R-167" vertex="1"><mxGeometry y="156.29508196721312" width="160" height="20" as="geometry"/></mxCell><mxCell id="MlBptTiz39GWEh7bX69R-29" value="Courier" style="swimlane;fontStyle=0;align=center;verticalAlign=top;childLayout=stackLayout;horizontal=1;startSize=26;horizontalStack=0;resizeParent=1;resizeLast=0;collapsible=1;marginBottom=0;rounded=0;shadow=0;strokeWidth=1;" parent="WIyWlLk6GJQsqaUBKTNV-1" vertex="1"><mxGeometry x="1061" y="410.0004918032787" width="180" height="98.88524590163935" as="geometry"><mxRectangle x="340" y="380" width="170" height="26" as="alternateBounds"/></mxGeometry></mxCell><mxCell id="MlBptTiz39GWEh7bX69R-30" value="+transport: str" style="text;align=left;verticalAlign=top;spacingLeft=4;spacingRight=4;overflow=hidden;rotatable=0;points=[[0,0.5],[1,0.5]];portConstraint=eastwest;" parent="MlBptTiz39GWEh7bX69R-29" vertex="1"><mxGeometry y="26" width="180" height="25.147540983606557" as="geometry"/></mxCell><mxCell id="MlBptTiz39GWEh7bX69R-31" value="" style="line;html=1;strokeWidth=1;align=left;verticalAlign=middle;spacingTop=-1;spacingLeft=3;spacingRight=3;rotatable=0;labelPosition=right;points=[];portConstraint=eastwest;" parent="MlBptTiz39GWEh7bX69R-29" vertex="1"><mxGeometry y="51.14754098360656" width="180" height="7.737704918032787" as="geometry"/></mxCell><mxCell id="MlBptTiz39GWEh7bX69R-32" value="+ get_cooked_orders(list):list" style="text;html=1;align=left;verticalAlign=middle;resizable=0;points=[];autosize=1;strokeColor=none;fillColor=none;" parent="MlBptTiz39GWEh7bX69R-29" vertex="1"><mxGeometry y="58.88524590163935" width="180" height="20" as="geometry"/></mxCell><mxCell id="24" value="+ deliver_orders(list):list" style="text;html=1;align=left;verticalAlign=middle;resizable=0;points=[];autosize=1;strokeColor=none;fillColor=none;" parent="MlBptTiz39GWEh7bX69R-29" vertex="1"><mxGeometry y="78.88524590163935" width="180" height="20" as="geometry"/></mxCell><mxCell id="MlBptTiz39GWEh7bX69R-16" value="Employee" style="swimlane;fontStyle=2;align=center;verticalAlign=top;childLayout=stackLayout;horizontal=1;startSize=26;horizontalStack=0;resizeParent=1;resizeLast=0;collapsible=1;marginBottom=0;rounded=0;shadow=0;strokeWidth=1;" parent="WIyWlLk6GJQsqaUBKTNV-1" vertex="1"><mxGeometry x="750" y="10" width="180" height="156.26229508196724" as="geometry"><mxRectangle x="230" y="140" width="160" height="26" as="alternateBounds"/></mxGeometry></mxCell><mxCell id="MlBptTiz39GWEh7bX69R-17" value="+ name:str" style="text;align=left;verticalAlign=top;spacingLeft=4;spacingRight=4;overflow=hidden;rotatable=0;points=[[0,0.5],[1,0.5]];portConstraint=eastwest;" parent="MlBptTiz39GWEh7bX69R-16" vertex="1"><mxGeometry y="26" width="180" height="25.14754098360656" as="geometry"/></mxCell><mxCell id="MlBptTiz39GWEh7bX69R-19" value="+ salary: int" style="text;align=left;verticalAlign=top;spacingLeft=4;spacingRight=4;overflow=hidden;rotatable=0;points=[[0,0.5],[1,0.5]];portConstraint=eastwest;rounded=0;shadow=0;html=0;" parent="MlBptTiz39GWEh7bX69R-16" vertex="1"><mxGeometry y="51.14754098360656" width="180" height="25.14754098360656" as="geometry"/></mxCell><mxCell id="MlBptTiz39GWEh7bX69R-20" value="" style="line;html=1;strokeWidth=1;align=left;verticalAlign=middle;spacingTop=-1;spacingLeft=3;spacingRight=3;rotatable=0;labelPosition=right;points=[];portConstraint=eastwest;" parent="MlBptTiz39GWEh7bX69R-16" vertex="1"><mxGeometry y="76.29508196721312" width="180" height="7.7377049180327875" as="geometry"/></mxCell><mxCell id="MlBptTiz39GWEh7bX69R-21" value="+ work():str&#10;" style="text;align=left;verticalAlign=top;spacingLeft=4;spacingRight=4;overflow=hidden;rotatable=0;points=[[0,0.5],[1,0.5]];portConstraint=eastwest;rounded=0;shadow=0;html=0;" parent="MlBptTiz39GWEh7bX69R-16" vertex="1"><mxGeometry y="84.03278688524591" width="180" height="27.081967213114755" as="geometry"/></mxCell><mxCell id="MlBptTiz39GWEh7bX69R-22" value="+get_salary(str):int" style="text;html=1;align=left;verticalAlign=middle;resizable=0;points=[];autosize=1;strokeColor=none;fillColor=none;" parent="MlBptTiz39GWEh7bX69R-16" vertex="1"><mxGeometry y="111.11475409836066" width="180" height="20" as="geometry"/></mxCell><mxCell id="MlBptTiz39GWEh7bX69R-23" value="Waiter" style="swimlane;fontStyle=0;align=center;verticalAlign=top;childLayout=stackLayout;horizontal=1;startSize=26;horizontalStack=0;resizeParent=1;resizeParentMax=0;resizeLast=0;collapsible=1;marginBottom=0;hachureGap=4;pointerEvents=0;" parent="WIyWlLk6GJQsqaUBKTNV-1" vertex="1"><mxGeometry x="760" y="245.26" width="260" height="181.25" as="geometry"/></mxCell><mxCell id="SgwwVuOV3iIbKAaU-41p-34" value="&lt;font&gt;+orders_list: list&lt;/font&gt;" style="text;html=1;align=left;verticalAlign=middle;resizable=0;points=[];autosize=1;strokeColor=none;fillColor=none;fontColor=#f0f0f0;" parent="MlBptTiz39GWEh7bX69R-23" vertex="1"><mxGeometry y="26" width="260" height="20" as="geometry"/></mxCell><mxCell id="SgwwVuOV3iIbKAaU-41p-33" value="" style="line;strokeWidth=1;fillColor=none;align=left;verticalAlign=middle;spacingTop=-1;spacingLeft=3;spacingRight=3;rotatable=0;labelPosition=right;points=[];portConstraint=eastwest;hachureGap=4;pointerEvents=0;fontColor=none;" parent="MlBptTiz39GWEh7bX69R-23" vertex="1"><mxGeometry y="46" width="260" height="14" as="geometry"/></mxCell><mxCell id="MlBptTiz39GWEh7bX69R-26" value="+ create_order(customer_id):order:obj&#10;+ extend_order(customer_id, list)&#10;+give_orders(obj):list&#10;+ get_cooked_orders(list)&#10;+ give_cooked_order(obj):list&#10;+collect_money(float):str&#10;+clean_orders_list()&#10;&#10;" style="text;strokeColor=none;fillColor=none;align=left;verticalAlign=top;spacingLeft=4;spacingRight=4;overflow=hidden;rotatable=0;points=[[0,0.5],[1,0.5]];portConstraint=eastwest;" parent="MlBptTiz39GWEh7bX69R-23" vertex="1"><mxGeometry y="60" width="260" height="121.25" as="geometry"/></mxCell><mxCell id="MlBptTiz39GWEh7bX69R-33" value="Cook" style="swimlane;fontStyle=0;align=center;verticalAlign=top;childLayout=stackLayout;horizontal=1;startSize=26;horizontalStack=0;resizeParent=1;resizeParentMax=0;resizeLast=0;collapsible=1;marginBottom=0;hachureGap=4;pointerEvents=0;" parent="WIyWlLk6GJQsqaUBKTNV-1" vertex="1"><mxGeometry x="290" y="245.26" width="230" height="60" as="geometry"/></mxCell><mxCell id="MlBptTiz39GWEh7bX69R-34" value="+cook_orders(list):popped_object " style="text;strokeColor=none;fillColor=none;align=left;verticalAlign=top;spacingLeft=4;spacingRight=4;overflow=hidden;rotatable=0;points=[[0,0.5],[1,0.5]];portConstraint=eastwest;" parent="MlBptTiz39GWEh7bX69R-33" vertex="1"><mxGeometry y="26" width="230" height="34" as="geometry"/></mxCell><mxCell id="MlBptTiz39GWEh7bX69R-233" value="&lt;span style=&quot;color: rgb(0, 0, 0); font-family: helvetica; font-size: 11px; font-style: normal; font-weight: 400; letter-spacing: normal; text-align: center; text-indent: 0px; text-transform: none; word-spacing: 0px; background-color: rgb(255, 255, 255); display: inline; float: none;&quot;&gt;1&lt;/span&gt;" style="text;whiteSpace=wrap;html=1;fontColor=default;" parent="WIyWlLk6GJQsqaUBKTNV-1" vertex="1"><mxGeometry x="630" y="250" width="10" height="20" as="geometry"/></mxCell><mxCell id="MlBptTiz39GWEh7bX69R-141" value="Administrator" style="swimlane;fontStyle=0;align=center;verticalAlign=top;childLayout=stackLayout;horizontal=1;startSize=26;horizontalStack=0;resizeParent=1;resizeLast=0;collapsible=1;marginBottom=0;rounded=0;shadow=0;strokeWidth=1;" parent="WIyWlLk6GJQsqaUBKTNV-1" vertex="1"><mxGeometry x="540" y="245.2560655737705" width="180" height="67.70491803278688" as="geometry"><mxRectangle x="340" y="380" width="170" height="26" as="alternateBounds"/></mxGeometry></mxCell><mxCell id="MlBptTiz39GWEh7bX69R-144" value="+accept_phone_orders(list):list" style="text;html=1;align=left;verticalAlign=middle;resizable=0;points=[];autosize=1;strokeColor=none;fillColor=none;" parent="MlBptTiz39GWEh7bX69R-141" vertex="1"><mxGeometry y="26" width="180" height="20" as="geometry"/></mxCell><mxCell id="MlBptTiz39GWEh7bX69R-146" value="+control_quality():str" style="text;html=1;align=left;verticalAlign=middle;resizable=0;points=[];autosize=1;strokeColor=none;fillColor=none;" parent="MlBptTiz39GWEh7bX69R-141" vertex="1"><mxGeometry y="46" width="180" height="20" as="geometry"/></mxCell><mxCell id="zkfFHV4jXpPFQw0GAbJ--0" value="Restaurant" style="swimlane;fontStyle=0;align=center;verticalAlign=top;childLayout=stackLayout;horizontal=1;startSize=26;horizontalStack=0;resizeParent=1;resizeLast=0;collapsible=1;marginBottom=0;rounded=0;shadow=0;strokeWidth=1;" parent="WIyWlLk6GJQsqaUBKTNV-1" vertex="1"><mxGeometry x="570" y="380" width="160" height="160" as="geometry"><mxRectangle x="230" y="140" width="160" height="26" as="alternateBounds"/></mxGeometry></mxCell><mxCell id="zkfFHV4jXpPFQw0GAbJ--1" value="+ name: str" style="text;align=left;verticalAlign=top;spacingLeft=4;spacingRight=4;overflow=hidden;rotatable=0;points=[[0,0.5],[1,0.5]];portConstraint=eastwest;" parent="zkfFHV4jXpPFQw0GAbJ--0" vertex="1"><mxGeometry y="26" width="160" height="26" as="geometry"/></mxCell><mxCell id="zkfFHV4jXpPFQw0GAbJ--3" value="+phone_number: str" style="text;align=left;verticalAlign=top;spacingLeft=4;spacingRight=4;overflow=hidden;rotatable=0;points=[[0,0.5],[1,0.5]];portConstraint=eastwest;rounded=0;shadow=0;html=0;" parent="zkfFHV4jXpPFQw0GAbJ--0" vertex="1"><mxGeometry y="52" width="160" height="28" as="geometry"/></mxCell><mxCell id="SgwwVuOV3iIbKAaU-41p-0" value="" style="line;strokeWidth=1;fillColor=none;align=left;verticalAlign=middle;spacingTop=-1;spacingLeft=3;spacingRight=3;rotatable=0;labelPosition=right;points=[];portConstraint=eastwest;hachureGap=4;pointerEvents=0;" parent="zkfFHV4jXpPFQw0GAbJ--0" vertex="1"><mxGeometry y="80" width="160" height="8" as="geometry"/></mxCell><mxCell id="SgwwVuOV3iIbKAaU-41p-2" value="+ take_orders(list)&lt;br&gt;+ get_cooked_orders(list)&lt;br&gt;+ give_cooked_orders(list)" style="text;html=1;align=left;verticalAlign=middle;resizable=0;points=[];autosize=1;strokeColor=none;fillColor=none;" parent="zkfFHV4jXpPFQw0GAbJ--0" vertex="1"><mxGeometry y="88" width="160" height="50" as="geometry"/></mxCell><mxCell id="MlBptTiz39GWEh7bX69R-103" value="Order" style="swimlane;fontStyle=0;align=center;verticalAlign=top;childLayout=stackLayout;horizontal=1;startSize=26;horizontalStack=0;resizeParent=1;resizeLast=0;collapsible=1;marginBottom=0;rounded=0;shadow=0;strokeWidth=1;" parent="WIyWlLk6GJQsqaUBKTNV-1" vertex="1"><mxGeometry x="827" y="465" width="160" height="120" as="geometry"><mxRectangle x="130" y="380" width="160" height="26" as="alternateBounds"/></mxGeometry></mxCell><mxCell id="MlBptTiz39GWEh7bX69R-104" value="-order_id:int" style="text;align=left;verticalAlign=top;spacingLeft=4;spacingRight=4;overflow=hidden;rotatable=0;points=[[0,0.5],[1,0.5]];portConstraint=eastwest;" parent="MlBptTiz39GWEh7bX69R-103" vertex="1"><mxGeometry y="26" width="160" height="23.21311475409836" as="geometry"/></mxCell><mxCell id="MlBptTiz39GWEh7bX69R-105" value="+List of dishes:list" style="text;align=left;verticalAlign=top;spacingLeft=4;spacingRight=4;overflow=hidden;rotatable=0;points=[[0,0.5],[1,0.5]];portConstraint=eastwest;rounded=0;shadow=0;html=0;" parent="MlBptTiz39GWEh7bX69R-103" vertex="1"><mxGeometry y="49.213114754098356" width="160" height="19.34426229508197" as="geometry"/></mxCell><mxCell id="MlBptTiz39GWEh7bX69R-165" value="+sum_of_money:float" style="text;html=1;align=left;verticalAlign=middle;resizable=0;points=[];autosize=1;strokeColor=none;fillColor=none;" parent="MlBptTiz39GWEh7bX69R-103" vertex="1"><mxGeometry y="68.55737704918033" width="160" height="20" as="geometry"/></mxCell><mxCell id="SgwwVuOV3iIbKAaU-41p-31" value="&lt;font&gt;+customer_id: int&lt;/font&gt;" style="text;html=1;align=left;verticalAlign=middle;resizable=0;points=[];autosize=1;strokeColor=none;fillColor=none;fontColor=#f0f0f0;" parent="MlBptTiz39GWEh7bX69R-103" vertex="1"><mxGeometry y="88.55737704918033" width="160" height="20" as="geometry"/></mxCell><mxCell id="SgwwVuOV3iIbKAaU-41p-23" value="" style="endArrow=none;html=1;fontColor=none;startSize=14;endSize=14;sourcePerimeterSpacing=8;targetPerimeterSpacing=8;" parent="WIyWlLk6GJQsqaUBKTNV-1" edge="1"><mxGeometry width="50" height="50" relative="1" as="geometry"><mxPoint x="430" y="220" as="sourcePoint"/><mxPoint x="1130" y="220" as="targetPoint"/><Array as="points"><mxPoint x="430" y="220"/></Array></mxGeometry></mxCell><mxCell id="SgwwVuOV3iIbKAaU-41p-26" value="" style="endArrow=diamondThin;endFill=1;endSize=24;html=1;sourcePerimeterSpacing=8;targetPerimeterSpacing=8;fontColor=none;entryX=0.004;entryY=-0.043;entryDx=0;entryDy=0;exitX=1.008;exitY=1.083;exitDx=0;exitDy=0;exitPerimeter=0;entryPerimeter=0;" parent="WIyWlLk6GJQsqaUBKTNV-1" source="zkfFHV4jXpPFQw0GAbJ--15" target="zkfFHV4jXpPFQw0GAbJ--3" edge="1"><mxGeometry width="160" relative="1" as="geometry"><mxPoint x="820" y="600" as="sourcePoint"/><mxPoint x="780" y="599.998" as="targetPoint"/><Array as="points"/></mxGeometry></mxCell><mxCell id="SgwwVuOV3iIbKAaU-41p-36" value="" style="endArrow=diamondThin;endFill=1;endSize=24;html=1;sourcePerimeterSpacing=8;targetPerimeterSpacing=8;fontColor=none;" parent="WIyWlLk6GJQsqaUBKTNV-1" edge="1"><mxGeometry width="160" relative="1" as="geometry"><mxPoint x="420" y="300" as="sourcePoint"/><mxPoint x="419.5" y="360" as="targetPoint"/></mxGeometry></mxCell><mxCell id="SgwwVuOV3iIbKAaU-41p-24" value="" style="endArrow=diamondThin;endFill=1;endSize=24;html=1;sourcePerimeterSpacing=8;targetPerimeterSpacing=8;fontColor=none;exitX=1;exitY=0.5;exitDx=0;exitDy=0;" parent="WIyWlLk6GJQsqaUBKTNV-1" source="MlBptTiz39GWEh7bX69R-168" edge="1"><mxGeometry width="160" relative="1" as="geometry"><mxPoint x="770" y="440" as="sourcePoint"/><mxPoint x="590" y="540" as="targetPoint"/></mxGeometry></mxCell><mxCell id="SgwwVuOV3iIbKAaU-41p-37" value="" style="endArrow=open;endFill=1;endSize=12;html=1;sourcePerimeterSpacing=8;targetPerimeterSpacing=8;fontColor=none;exitX=0.002;exitY=0.254;exitDx=0;exitDy=0;exitPerimeter=0;entryX=0.634;entryY=-0.033;entryDx=0;entryDy=0;entryPerimeter=0;" parent="WIyWlLk6GJQsqaUBKTNV-1" source="MlBptTiz39GWEh7bX69R-26" target="zkfFHV4jXpPFQw0GAbJ--0" edge="1"><mxGeometry width="160" relative="1" as="geometry"><mxPoint x="610" y="550" as="sourcePoint"/><mxPoint x="770" y="550" as="targetPoint"/></mxGeometry></mxCell><mxCell id="SgwwVuOV3iIbKAaU-41p-38" value="" style="endArrow=diamondThin;endFill=0;endSize=24;html=1;sourcePerimeterSpacing=8;targetPerimeterSpacing=8;fontColor=none;" parent="WIyWlLk6GJQsqaUBKTNV-1" edge="1"><mxGeometry width="160" relative="1" as="geometry"><mxPoint x="879.5" y="465" as="sourcePoint"/><mxPoint x="879.5" y="427" as="targetPoint"/></mxGeometry></mxCell><mxCell id="SgwwVuOV3iIbKAaU-41p-39" value="" style="endArrow=open;endFill=1;endSize=12;html=1;sourcePerimeterSpacing=8;targetPerimeterSpacing=8;fontColor=none;" parent="WIyWlLk6GJQsqaUBKTNV-1" edge="1"><mxGeometry width="160" relative="1" as="geometry"><mxPoint x="780" y="605" as="sourcePoint"/><mxPoint x="780" y="430" as="targetPoint"/></mxGeometry></mxCell><mxCell id="5" value="" style="endArrow=block;endSize=16;endFill=0;html=1;" parent="WIyWlLk6GJQsqaUBKTNV-1" edge="1"><mxGeometry width="160" relative="1" as="geometry"><mxPoint x="840" y="220" as="sourcePoint"/><mxPoint x="840" y="170" as="targetPoint"/></mxGeometry></mxCell><mxCell id="6" value="" style="endArrow=none;html=1;" parent="WIyWlLk6GJQsqaUBKTNV-1" edge="1"><mxGeometry width="50" height="50" relative="1" as="geometry"><mxPoint x="920" y="245.26" as="sourcePoint"/><mxPoint x="920" y="220" as="targetPoint"/><Array as="points"/></mxGeometry></mxCell><mxCell id="7" value="" style="endArrow=none;html=1;" parent="WIyWlLk6GJQsqaUBKTNV-1" edge="1"><mxGeometry width="50" height="50" relative="1" as="geometry"><mxPoint x="634.5" y="245.26" as="sourcePoint"/><mxPoint x="634.5" y="220" as="targetPoint"/><Array as="points"/></mxGeometry></mxCell><mxCell id="8" value="" style="endArrow=none;html=1;" parent="WIyWlLk6GJQsqaUBKTNV-1" edge="1"><mxGeometry width="50" height="50" relative="1" as="geometry"><mxPoint x="1130" y="410" as="sourcePoint"/><mxPoint x="1130" y="220" as="targetPoint"/><Array as="points"/></mxGeometry></mxCell><mxCell id="17" value="" style="endArrow=open;endFill=1;endSize=12;html=1;sourcePerimeterSpacing=8;targetPerimeterSpacing=8;fontColor=none;entryX=0.037;entryY=1.009;entryDx=0;entryDy=0;entryPerimeter=0;exitX=0.119;exitY=-0.015;exitDx=0;exitDy=0;exitPerimeter=0;" parent="WIyWlLk6GJQsqaUBKTNV-1" source="MlBptTiz39GWEh7bX69R-54" edge="1"><mxGeometry width="160" relative="1" as="geometry"><mxPoint x="680" y="660" as="sourcePoint"/><mxPoint x="679.6199999999999" y="540.0012499999999" as="targetPoint"/></mxGeometry></mxCell><mxCell id="18" value="" style="endArrow=open;endFill=1;endSize=12;html=1;sourcePerimeterSpacing=8;targetPerimeterSpacing=8;fontColor=none;exitX=0.317;exitY=0.971;exitDx=0;exitDy=0;exitPerimeter=0;entryX=0.181;entryY=-0.025;entryDx=0;entryDy=0;entryPerimeter=0;" parent="WIyWlLk6GJQsqaUBKTNV-1" source="MlBptTiz39GWEh7bX69R-146" target="zkfFHV4jXpPFQw0GAbJ--0" edge="1"><mxGeometry width="160" relative="1" as="geometry"><mxPoint x="600" y="340" as="sourcePoint"/><mxPoint x="510.9200000000001" y="386.2825" as="targetPoint"/></mxGeometry></mxCell><mxCell id="19" value="" style="endArrow=open;endFill=1;endSize=12;html=1;sourcePerimeterSpacing=8;targetPerimeterSpacing=8;fontColor=none;" parent="WIyWlLk6GJQsqaUBKTNV-1" edge="1"><mxGeometry width="160" relative="1" as="geometry"><mxPoint x="1020" y="305" as="sourcePoint"/><mxPoint x="1080" y="410" as="targetPoint"/></mxGeometry></mxCell><mxCell id="20" value="" style="endArrow=open;endFill=1;endSize=12;html=1;sourcePerimeterSpacing=8;targetPerimeterSpacing=8;fontColor=none;entryX=1.006;entryY=0.042;entryDx=0;entryDy=0;entryPerimeter=0;" parent="WIyWlLk6GJQsqaUBKTNV-1" target="MlBptTiz39GWEh7bX69R-54" edge="1"><mxGeometry width="160" relative="1" as="geometry"><mxPoint x="1110" y="510" as="sourcePoint"/><mxPoint x="1030" y="620" as="targetPoint"/><Array as="points"/></mxGeometry></mxCell><mxCell id="21" value="" style="endArrow=none;html=1;" parent="WIyWlLk6GJQsqaUBKTNV-1" edge="1"><mxGeometry width="50" height="50" relative="1" as="geometry"><mxPoint x="430" y="245.26" as="sourcePoint"/><mxPoint x="430" y="220" as="targetPoint"/><Array as="points"/></mxGeometry></mxCell></root></mxGraphModel></diagram></mxfile>